<svg width="161" height="161" viewBox="0 0 161 161" fill="none" xmlns="http://www.w3.org/2000/svg">
<g clip-path="url(#clip0_139_7)">
<path d="M0 80.401C0.128189 73.739 2.44109 67.971 7.15661 63.2232C13.0991 57.2371 19.0837 51.2932 25.0317 45.3145C25.5096 44.8346 25.9198 44.6826 26.6359 44.7431C28.2932 44.8804 29.9706 44.7815 31.6389 44.8108C34.4041 44.8621 37.1803 44.6277 39.9346 45.0453C43.5971 45.6058 46.6901 47.2433 49.296 49.8572C57.2608 57.8263 65.2257 65.7937 73.1905 73.7592C77.8053 78.3732 84.7824 78.5802 89.4888 74.0577C94.3435 69.3887 99.0407 64.5585 103.806 59.7979C107.136 56.4703 110.466 53.1408 113.795 49.8096C117.033 46.5839 120.968 44.9903 125.515 44.9171C128.107 44.8749 130.7 44.9171 133.293 44.9171C133.44 44.9419 133.591 44.9419 133.738 44.9171C135.203 44.3804 135.983 45.3384 136.873 46.2377C142.788 52.2073 148.864 58.023 154.636 64.128C163.388 73.3782 163.04 88.5301 154.059 97.5714C148.016 103.662 141.924 109.714 135.862 115.79C135.496 116.156 135.201 116.389 134.63 116.182C134.23 116.037 133.747 116.108 133.302 116.106C130.471 116.095 127.636 116.18 124.81 116.063C120.567 115.879 116.885 114.284 113.867 111.273C105.932 103.349 98.0097 95.421 90.0986 87.4897C86.0863 83.4856 80.3288 82.6576 75.5931 85.3685C74.7197 85.8801 73.919 86.5066 73.2125 87.2314C65.3026 95.1407 57.3982 103.048 49.4993 110.952C45.9924 114.48 41.7841 116.202 36.8342 116.193C33.6753 116.193 30.509 116.066 27.361 116.249C25.9693 116.33 25.1635 115.85 24.2735 114.942C18.6405 109.238 12.9508 103.585 7.28663 97.9066C2.46306 93.0819 0.0879011 87.2296 0 80.401Z" fill="#38B8FF"/>
<path d="M32.6552 37.4932C32.9324 37.3204 33.1957 37.1263 33.4427 36.9126C43.3938 26.9676 53.3437 17.0208 63.2924 7.0722C72.7308 -2.36293 88.2838 -2.35744 97.7295 7.08503C107.718 17.0727 117.708 27.061 127.698 37.05C127.952 37.2572 128.227 37.4382 128.517 37.5903L128.323 37.9054C127.566 37.9054 126.808 37.9182 126.052 37.9054C119.119 37.779 113.297 40.3104 108.428 45.2011C100.646 53.0164 92.851 60.8152 85.0425 68.5975C82.8065 70.8359 80.2189 70.8432 77.9847 68.6103C69.9723 60.6033 61.9599 52.5963 53.9474 44.5893C49.4279 40.1034 43.9157 37.8852 37.5557 37.7882C35.9845 37.7643 34.4114 37.7882 32.8402 37.7882L32.6552 37.4932Z" fill="#38B8FF"/>
<path d="M128.519 123.417C128.242 123.6 127.922 123.721 127.696 123.946C117.704 133.928 107.715 143.914 97.7295 153.906C88.2838 163.35 72.7308 163.367 63.3016 153.939C53.3492 143.997 43.4024 134.052 33.461 124.104C33.204 123.871 32.935 123.653 32.6552 123.448C33.0526 123.102 33.3878 123.223 33.6881 123.223C36.8122 123.208 39.9382 123.327 43.0129 122.549C47.1461 121.503 50.783 119.561 53.8028 116.557C61.8311 108.571 69.8398 100.565 77.8291 92.5398C80.2097 90.1586 82.7918 90.1586 85.1633 92.5398C92.895 100.273 100.625 108.009 108.355 115.748C113.266 120.693 119.128 123.258 126.129 123.106C126.841 123.089 127.554 123.106 128.264 123.106L128.519 123.417Z" fill="#38B8FF"/>
</g>
<defs>
<clipPath id="clip0_139_7">
<rect width="161" height="161" fill="white"/>
</clipPath>
</defs>
</svg>
