<?xml version="1.0" standalone="no"?>
<svg xmlns="http://www.w3.org/2000/svg" version="1.1" width="234" height="234">
	<!-- Created with https://api.qrserver.com (QR Code API, see goQR.me/api for information) -->
	<title>QR Code</title>
	<desc>00020126360014BR.GOV.BCB.PIX0114134257200001405204000053039865802BR5925IGREJA EVANGELICA FONTE V6009SAO.PAULO62070503***63047C54</desc>
	<rect style="fill:rgb(0, 0, 0);fill-opacity:1" x="0" y="0" width="234" height="234" />
	<g id="elements">
		<path style="fill:rgb(255, 255, 254)" d="M 6,6 l 6,0 0,6 -6,0 z M 12,6 l 6,0 0,6 -6,0 z M 18,6 l 6,0 0,6 -6,0 z M 24,6 l 6,0 0,6 -6,0 z M 30,6 l 6,0 0,6 -6,0 z M 36,6 l 6,0 0,6 -6,0 z M 42,6 l 6,0 0,6 -6,0 z M 60,6 l 6,0 0,6 -6,0 z M 96,6 l 6,0 0,6 -6,0 z M 102,6 l 6,0 0,6 -6,0 z M 114,6 l 6,0 0,6 -6,0 z M 120,6 l 6,0 0,6 -6,0 z M 132,6 l 6,0 0,6 -6,0 z M 144,6 l 6,0 0,6 -6,0 z M 162,6 l 6,0 0,6 -6,0 z M 186,6 l 6,0 0,6 -6,0 z M 192,6 l 6,0 0,6 -6,0 z M 198,6 l 6,0 0,6 -6,0 z M 204,6 l 6,0 0,6 -6,0 z M 210,6 l 6,0 0,6 -6,0 z M 216,6 l 6,0 0,6 -6,0 z M 222,6 l 6,0 0,6 -6,0 z M 6,12 l 6,0 0,6 -6,0 z M 42,12 l 6,0 0,6 -6,0 z M 54,12 l 6,0 0,6 -6,0 z M 60,12 l 6,0 0,6 -6,0 z M 72,12 l 6,0 0,6 -6,0 z M 78,12 l 6,0 0,6 -6,0 z M 108,12 l 6,0 0,6 -6,0 z M 138,12 l 6,0 0,6 -6,0 z M 162,12 l 6,0 0,6 -6,0 z M 174,12 l 6,0 0,6 -6,0 z M 186,12 l 6,0 0,6 -6,0 z M 222,12 l 6,0 0,6 -6,0 z M 6,18 l 6,0 0,6 -6,0 z M 18,18 l 6,0 0,6 -6,0 z M 24,18 l 6,0 0,6 -6,0 z M 30,18 l 6,0 0,6 -6,0 z M 42,18 l 6,0 0,6 -6,0 z M 60,18 l 6,0 0,6 -6,0 z M 66,18 l 6,0 0,6 -6,0 z M 72,18 l 6,0 0,6 -6,0 z M 90,18 l 6,0 0,6 -6,0 z M 102,18 l 6,0 0,6 -6,0 z M 108,18 l 6,0 0,6 -6,0 z M 114,18 l 6,0 0,6 -6,0 z M 120,18 l 6,0 0,6 -6,0 z M 144,18 l 6,0 0,6 -6,0 z M 150,18 l 6,0 0,6 -6,0 z M 162,18 l 6,0 0,6 -6,0 z M 174,18 l 6,0 0,6 -6,0 z M 186,18 l 6,0 0,6 -6,0 z M 198,18 l 6,0 0,6 -6,0 z M 204,18 l 6,0 0,6 -6,0 z M 210,18 l 6,0 0,6 -6,0 z M 222,18 l 6,0 0,6 -6,0 z M 6,24 l 6,0 0,6 -6,0 z M 18,24 l 6,0 0,6 -6,0 z M 24,24 l 6,0 0,6 -6,0 z M 30,24 l 6,0 0,6 -6,0 z M 42,24 l 6,0 0,6 -6,0 z M 54,24 l 6,0 0,6 -6,0 z M 60,24 l 6,0 0,6 -6,0 z M 72,24 l 6,0 0,6 -6,0 z M 102,24 l 6,0 0,6 -6,0 z M 132,24 l 6,0 0,6 -6,0 z M 138,24 l 6,0 0,6 -6,0 z M 144,24 l 6,0 0,6 -6,0 z M 150,24 l 6,0 0,6 -6,0 z M 156,24 l 6,0 0,6 -6,0 z M 174,24 l 6,0 0,6 -6,0 z M 186,24 l 6,0 0,6 -6,0 z M 198,24 l 6,0 0,6 -6,0 z M 204,24 l 6,0 0,6 -6,0 z M 210,24 l 6,0 0,6 -6,0 z M 222,24 l 6,0 0,6 -6,0 z M 6,30 l 6,0 0,6 -6,0 z M 18,30 l 6,0 0,6 -6,0 z M 24,30 l 6,0 0,6 -6,0 z M 30,30 l 6,0 0,6 -6,0 z M 42,30 l 6,0 0,6 -6,0 z M 66,30 l 6,0 0,6 -6,0 z M 78,30 l 6,0 0,6 -6,0 z M 84,30 l 6,0 0,6 -6,0 z M 90,30 l 6,0 0,6 -6,0 z M 96,30 l 6,0 0,6 -6,0 z M 108,30 l 6,0 0,6 -6,0 z M 114,30 l 6,0 0,6 -6,0 z M 132,30 l 6,0 0,6 -6,0 z M 150,30 l 6,0 0,6 -6,0 z M 174,30 l 6,0 0,6 -6,0 z M 186,30 l 6,0 0,6 -6,0 z M 198,30 l 6,0 0,6 -6,0 z M 204,30 l 6,0 0,6 -6,0 z M 210,30 l 6,0 0,6 -6,0 z M 222,30 l 6,0 0,6 -6,0 z M 6,36 l 6,0 0,6 -6,0 z M 42,36 l 6,0 0,6 -6,0 z M 54,36 l 6,0 0,6 -6,0 z M 66,36 l 6,0 0,6 -6,0 z M 84,36 l 6,0 0,6 -6,0 z M 90,36 l 6,0 0,6 -6,0 z M 96,36 l 6,0 0,6 -6,0 z M 102,36 l 6,0 0,6 -6,0 z M 108,36 l 6,0 0,6 -6,0 z M 114,36 l 6,0 0,6 -6,0 z M 126,36 l 6,0 0,6 -6,0 z M 138,36 l 6,0 0,6 -6,0 z M 144,36 l 6,0 0,6 -6,0 z M 150,36 l 6,0 0,6 -6,0 z M 156,36 l 6,0 0,6 -6,0 z M 168,36 l 6,0 0,6 -6,0 z M 174,36 l 6,0 0,6 -6,0 z M 186,36 l 6,0 0,6 -6,0 z M 222,36 l 6,0 0,6 -6,0 z M 6,42 l 6,0 0,6 -6,0 z M 12,42 l 6,0 0,6 -6,0 z M 18,42 l 6,0 0,6 -6,0 z M 24,42 l 6,0 0,6 -6,0 z M 30,42 l 6,0 0,6 -6,0 z M 36,42 l 6,0 0,6 -6,0 z M 42,42 l 6,0 0,6 -6,0 z M 54,42 l 6,0 0,6 -6,0 z M 66,42 l 6,0 0,6 -6,0 z M 78,42 l 6,0 0,6 -6,0 z M 90,42 l 6,0 0,6 -6,0 z M 102,42 l 6,0 0,6 -6,0 z M 114,42 l 6,0 0,6 -6,0 z M 126,42 l 6,0 0,6 -6,0 z M 138,42 l 6,0 0,6 -6,0 z M 150,42 l 6,0 0,6 -6,0 z M 162,42 l 6,0 0,6 -6,0 z M 174,42 l 6,0 0,6 -6,0 z M 186,42 l 6,0 0,6 -6,0 z M 192,42 l 6,0 0,6 -6,0 z M 198,42 l 6,0 0,6 -6,0 z M 204,42 l 6,0 0,6 -6,0 z M 210,42 l 6,0 0,6 -6,0 z M 216,42 l 6,0 0,6 -6,0 z M 222,42 l 6,0 0,6 -6,0 z M 78,48 l 6,0 0,6 -6,0 z M 84,48 l 6,0 0,6 -6,0 z M 96,48 l 6,0 0,6 -6,0 z M 138,48 l 6,0 0,6 -6,0 z M 144,48 l 6,0 0,6 -6,0 z M 150,48 l 6,0 0,6 -6,0 z M 168,48 l 6,0 0,6 -6,0 z M 6,54 l 6,0 0,6 -6,0 z M 12,54 l 6,0 0,6 -6,0 z M 18,54 l 6,0 0,6 -6,0 z M 24,54 l 6,0 0,6 -6,0 z M 30,54 l 6,0 0,6 -6,0 z M 42,54 l 6,0 0,6 -6,0 z M 48,54 l 6,0 0,6 -6,0 z M 54,54 l 6,0 0,6 -6,0 z M 60,54 l 6,0 0,6 -6,0 z M 66,54 l 6,0 0,6 -6,0 z M 78,54 l 6,0 0,6 -6,0 z M 90,54 l 6,0 0,6 -6,0 z M 96,54 l 6,0 0,6 -6,0 z M 114,54 l 6,0 0,6 -6,0 z M 126,54 l 6,0 0,6 -6,0 z M 132,54 l 6,0 0,6 -6,0 z M 144,54 l 6,0 0,6 -6,0 z M 180,54 l 6,0 0,6 -6,0 z M 192,54 l 6,0 0,6 -6,0 z M 204,54 l 6,0 0,6 -6,0 z M 216,54 l 6,0 0,6 -6,0 z M 6,60 l 6,0 0,6 -6,0 z M 12,60 l 6,0 0,6 -6,0 z M 48,60 l 6,0 0,6 -6,0 z M 54,60 l 6,0 0,6 -6,0 z M 60,60 l 6,0 0,6 -6,0 z M 96,60 l 6,0 0,6 -6,0 z M 102,60 l 6,0 0,6 -6,0 z M 114,60 l 6,0 0,6 -6,0 z M 138,60 l 6,0 0,6 -6,0 z M 162,60 l 6,0 0,6 -6,0 z M 180,60 l 6,0 0,6 -6,0 z M 186,60 l 6,0 0,6 -6,0 z M 222,60 l 6,0 0,6 -6,0 z M 12,66 l 6,0 0,6 -6,0 z M 36,66 l 6,0 0,6 -6,0 z M 42,66 l 6,0 0,6 -6,0 z M 54,66 l 6,0 0,6 -6,0 z M 60,66 l 6,0 0,6 -6,0 z M 66,66 l 6,0 0,6 -6,0 z M 72,66 l 6,0 0,6 -6,0 z M 78,66 l 6,0 0,6 -6,0 z M 120,66 l 6,0 0,6 -6,0 z M 132,66 l 6,0 0,6 -6,0 z M 144,66 l 6,0 0,6 -6,0 z M 150,66 l 6,0 0,6 -6,0 z M 186,66 l 6,0 0,6 -6,0 z M 198,66 l 6,0 0,6 -6,0 z M 210,66 l 6,0 0,6 -6,0 z M 222,66 l 6,0 0,6 -6,0 z M 24,72 l 6,0 0,6 -6,0 z M 30,72 l 6,0 0,6 -6,0 z M 36,72 l 6,0 0,6 -6,0 z M 54,72 l 6,0 0,6 -6,0 z M 60,72 l 6,0 0,6 -6,0 z M 72,72 l 6,0 0,6 -6,0 z M 90,72 l 6,0 0,6 -6,0 z M 102,72 l 6,0 0,6 -6,0 z M 114,72 l 6,0 0,6 -6,0 z M 126,72 l 6,0 0,6 -6,0 z M 132,72 l 6,0 0,6 -6,0 z M 138,72 l 6,0 0,6 -6,0 z M 150,72 l 6,0 0,6 -6,0 z M 162,72 l 6,0 0,6 -6,0 z M 168,72 l 6,0 0,6 -6,0 z M 204,72 l 6,0 0,6 -6,0 z M 6,78 l 6,0 0,6 -6,0 z M 42,78 l 6,0 0,6 -6,0 z M 54,78 l 6,0 0,6 -6,0 z M 60,78 l 6,0 0,6 -6,0 z M 66,78 l 6,0 0,6 -6,0 z M 72,78 l 6,0 0,6 -6,0 z M 102,78 l 6,0 0,6 -6,0 z M 114,78 l 6,0 0,6 -6,0 z M 120,78 l 6,0 0,6 -6,0 z M 126,78 l 6,0 0,6 -6,0 z M 132,78 l 6,0 0,6 -6,0 z M 138,78 l 6,0 0,6 -6,0 z M 150,78 l 6,0 0,6 -6,0 z M 168,78 l 6,0 0,6 -6,0 z M 198,78 l 6,0 0,6 -6,0 z M 216,78 l 6,0 0,6 -6,0 z M 222,78 l 6,0 0,6 -6,0 z M 12,84 l 6,0 0,6 -6,0 z M 18,84 l 6,0 0,6 -6,0 z M 36,84 l 6,0 0,6 -6,0 z M 48,84 l 6,0 0,6 -6,0 z M 54,84 l 6,0 0,6 -6,0 z M 60,84 l 6,0 0,6 -6,0 z M 78,84 l 6,0 0,6 -6,0 z M 84,84 l 6,0 0,6 -6,0 z M 90,84 l 6,0 0,6 -6,0 z M 96,84 l 6,0 0,6 -6,0 z M 108,84 l 6,0 0,6 -6,0 z M 120,84 l 6,0 0,6 -6,0 z M 138,84 l 6,0 0,6 -6,0 z M 144,84 l 6,0 0,6 -6,0 z M 156,84 l 6,0 0,6 -6,0 z M 168,84 l 6,0 0,6 -6,0 z M 186,84 l 6,0 0,6 -6,0 z M 192,84 l 6,0 0,6 -6,0 z M 204,84 l 6,0 0,6 -6,0 z M 216,84 l 6,0 0,6 -6,0 z M 222,84 l 6,0 0,6 -6,0 z M 6,90 l 6,0 0,6 -6,0 z M 18,90 l 6,0 0,6 -6,0 z M 24,90 l 6,0 0,6 -6,0 z M 30,90 l 6,0 0,6 -6,0 z M 36,90 l 6,0 0,6 -6,0 z M 42,90 l 6,0 0,6 -6,0 z M 54,90 l 6,0 0,6 -6,0 z M 84,90 l 6,0 0,6 -6,0 z M 90,90 l 6,0 0,6 -6,0 z M 96,90 l 6,0 0,6 -6,0 z M 102,90 l 6,0 0,6 -6,0 z M 114,90 l 6,0 0,6 -6,0 z M 132,90 l 6,0 0,6 -6,0 z M 138,90 l 6,0 0,6 -6,0 z M 156,90 l 6,0 0,6 -6,0 z M 168,90 l 6,0 0,6 -6,0 z M 186,90 l 6,0 0,6 -6,0 z M 192,90 l 6,0 0,6 -6,0 z M 204,90 l 6,0 0,6 -6,0 z M 18,96 l 6,0 0,6 -6,0 z M 30,96 l 6,0 0,6 -6,0 z M 48,96 l 6,0 0,6 -6,0 z M 78,96 l 6,0 0,6 -6,0 z M 84,96 l 6,0 0,6 -6,0 z M 96,96 l 6,0 0,6 -6,0 z M 138,96 l 6,0 0,6 -6,0 z M 144,96 l 6,0 0,6 -6,0 z M 162,96 l 6,0 0,6 -6,0 z M 168,96 l 6,0 0,6 -6,0 z M 180,96 l 6,0 0,6 -6,0 z M 186,96 l 6,0 0,6 -6,0 z M 198,96 l 6,0 0,6 -6,0 z M 204,96 l 6,0 0,6 -6,0 z M 216,96 l 6,0 0,6 -6,0 z M 6,102 l 6,0 0,6 -6,0 z M 18,102 l 6,0 0,6 -6,0 z M 24,102 l 6,0 0,6 -6,0 z M 42,102 l 6,0 0,6 -6,0 z M 78,102 l 6,0 0,6 -6,0 z M 90,102 l 6,0 0,6 -6,0 z M 96,102 l 6,0 0,6 -6,0 z M 114,102 l 6,0 0,6 -6,0 z M 126,102 l 6,0 0,6 -6,0 z M 132,102 l 6,0 0,6 -6,0 z M 138,102 l 6,0 0,6 -6,0 z M 144,102 l 6,0 0,6 -6,0 z M 180,102 l 6,0 0,6 -6,0 z M 186,102 l 6,0 0,6 -6,0 z M 198,102 l 6,0 0,6 -6,0 z M 210,102 l 6,0 0,6 -6,0 z M 216,102 l 6,0 0,6 -6,0 z M 222,102 l 6,0 0,6 -6,0 z M 12,108 l 6,0 0,6 -6,0 z M 18,108 l 6,0 0,6 -6,0 z M 36,108 l 6,0 0,6 -6,0 z M 48,108 l 6,0 0,6 -6,0 z M 54,108 l 6,0 0,6 -6,0 z M 66,108 l 6,0 0,6 -6,0 z M 96,108 l 6,0 0,6 -6,0 z M 102,108 l 6,0 0,6 -6,0 z M 114,108 l 6,0 0,6 -6,0 z M 120,108 l 6,0 0,6 -6,0 z M 126,108 l 6,0 0,6 -6,0 z M 132,108 l 6,0 0,6 -6,0 z M 162,108 l 6,0 0,6 -6,0 z M 168,108 l 6,0 0,6 -6,0 z M 174,108 l 6,0 0,6 -6,0 z M 192,108 l 6,0 0,6 -6,0 z M 204,108 l 6,0 0,6 -6,0 z M 210,108 l 6,0 0,6 -6,0 z M 222,108 l 6,0 0,6 -6,0 z M 6,114 l 6,0 0,6 -6,0 z M 12,114 l 6,0 0,6 -6,0 z M 24,114 l 6,0 0,6 -6,0 z M 42,114 l 6,0 0,6 -6,0 z M 54,114 l 6,0 0,6 -6,0 z M 60,114 l 6,0 0,6 -6,0 z M 66,114 l 6,0 0,6 -6,0 z M 72,114 l 6,0 0,6 -6,0 z M 78,114 l 6,0 0,6 -6,0 z M 108,114 l 6,0 0,6 -6,0 z M 114,114 l 6,0 0,6 -6,0 z M 120,114 l 6,0 0,6 -6,0 z M 180,114 l 6,0 0,6 -6,0 z M 192,114 l 6,0 0,6 -6,0 z M 198,114 l 6,0 0,6 -6,0 z M 222,114 l 6,0 0,6 -6,0 z M 24,120 l 6,0 0,6 -6,0 z M 30,120 l 6,0 0,6 -6,0 z M 36,120 l 6,0 0,6 -6,0 z M 60,120 l 6,0 0,6 -6,0 z M 66,120 l 6,0 0,6 -6,0 z M 72,120 l 6,0 0,6 -6,0 z M 90,120 l 6,0 0,6 -6,0 z M 102,120 l 6,0 0,6 -6,0 z M 108,120 l 6,0 0,6 -6,0 z M 114,120 l 6,0 0,6 -6,0 z M 126,120 l 6,0 0,6 -6,0 z M 168,120 l 6,0 0,6 -6,0 z M 186,120 l 6,0 0,6 -6,0 z M 198,120 l 6,0 0,6 -6,0 z M 204,120 l 6,0 0,6 -6,0 z M 216,120 l 6,0 0,6 -6,0 z M 222,120 l 6,0 0,6 -6,0 z M 6,126 l 6,0 0,6 -6,0 z M 12,126 l 6,0 0,6 -6,0 z M 24,126 l 6,0 0,6 -6,0 z M 36,126 l 6,0 0,6 -6,0 z M 42,126 l 6,0 0,6 -6,0 z M 48,126 l 6,0 0,6 -6,0 z M 54,126 l 6,0 0,6 -6,0 z M 60,126 l 6,0 0,6 -6,0 z M 66,126 l 6,0 0,6 -6,0 z M 72,126 l 6,0 0,6 -6,0 z M 108,126 l 6,0 0,6 -6,0 z M 120,126 l 6,0 0,6 -6,0 z M 132,126 l 6,0 0,6 -6,0 z M 150,126 l 6,0 0,6 -6,0 z M 162,126 l 6,0 0,6 -6,0 z M 168,126 l 6,0 0,6 -6,0 z M 174,126 l 6,0 0,6 -6,0 z M 180,126 l 6,0 0,6 -6,0 z M 192,126 l 6,0 0,6 -6,0 z M 198,126 l 6,0 0,6 -6,0 z M 204,126 l 6,0 0,6 -6,0 z M 216,126 l 6,0 0,6 -6,0 z M 222,126 l 6,0 0,6 -6,0 z M 12,132 l 6,0 0,6 -6,0 z M 30,132 l 6,0 0,6 -6,0 z M 36,132 l 6,0 0,6 -6,0 z M 48,132 l 6,0 0,6 -6,0 z M 66,132 l 6,0 0,6 -6,0 z M 78,132 l 6,0 0,6 -6,0 z M 84,132 l 6,0 0,6 -6,0 z M 90,132 l 6,0 0,6 -6,0 z M 96,132 l 6,0 0,6 -6,0 z M 108,132 l 6,0 0,6 -6,0 z M 120,132 l 6,0 0,6 -6,0 z M 126,132 l 6,0 0,6 -6,0 z M 132,132 l 6,0 0,6 -6,0 z M 162,132 l 6,0 0,6 -6,0 z M 168,132 l 6,0 0,6 -6,0 z M 192,132 l 6,0 0,6 -6,0 z M 18,138 l 6,0 0,6 -6,0 z M 24,138 l 6,0 0,6 -6,0 z M 30,138 l 6,0 0,6 -6,0 z M 42,138 l 6,0 0,6 -6,0 z M 60,138 l 6,0 0,6 -6,0 z M 66,138 l 6,0 0,6 -6,0 z M 84,138 l 6,0 0,6 -6,0 z M 90,138 l 6,0 0,6 -6,0 z M 96,138 l 6,0 0,6 -6,0 z M 114,138 l 6,0 0,6 -6,0 z M 120,138 l 6,0 0,6 -6,0 z M 126,138 l 6,0 0,6 -6,0 z M 132,138 l 6,0 0,6 -6,0 z M 138,138 l 6,0 0,6 -6,0 z M 144,138 l 6,0 0,6 -6,0 z M 150,138 l 6,0 0,6 -6,0 z M 168,138 l 6,0 0,6 -6,0 z M 192,138 l 6,0 0,6 -6,0 z M 198,138 l 6,0 0,6 -6,0 z M 222,138 l 6,0 0,6 -6,0 z M 12,144 l 6,0 0,6 -6,0 z M 24,144 l 6,0 0,6 -6,0 z M 48,144 l 6,0 0,6 -6,0 z M 54,144 l 6,0 0,6 -6,0 z M 66,144 l 6,0 0,6 -6,0 z M 78,144 l 6,0 0,6 -6,0 z M 84,144 l 6,0 0,6 -6,0 z M 96,144 l 6,0 0,6 -6,0 z M 114,144 l 6,0 0,6 -6,0 z M 126,144 l 6,0 0,6 -6,0 z M 132,144 l 6,0 0,6 -6,0 z M 138,144 l 6,0 0,6 -6,0 z M 156,144 l 6,0 0,6 -6,0 z M 168,144 l 6,0 0,6 -6,0 z M 174,144 l 6,0 0,6 -6,0 z M 180,144 l 6,0 0,6 -6,0 z M 192,144 l 6,0 0,6 -6,0 z M 198,144 l 6,0 0,6 -6,0 z M 216,144 l 6,0 0,6 -6,0 z M 12,150 l 6,0 0,6 -6,0 z M 24,150 l 6,0 0,6 -6,0 z M 30,150 l 6,0 0,6 -6,0 z M 36,150 l 6,0 0,6 -6,0 z M 42,150 l 6,0 0,6 -6,0 z M 60,150 l 6,0 0,6 -6,0 z M 78,150 l 6,0 0,6 -6,0 z M 90,150 l 6,0 0,6 -6,0 z M 114,150 l 6,0 0,6 -6,0 z M 120,150 l 6,0 0,6 -6,0 z M 126,150 l 6,0 0,6 -6,0 z M 144,150 l 6,0 0,6 -6,0 z M 156,150 l 6,0 0,6 -6,0 z M 162,150 l 6,0 0,6 -6,0 z M 168,150 l 6,0 0,6 -6,0 z M 180,150 l 6,0 0,6 -6,0 z M 186,150 l 6,0 0,6 -6,0 z M 192,150 l 6,0 0,6 -6,0 z M 198,150 l 6,0 0,6 -6,0 z M 210,150 l 6,0 0,6 -6,0 z M 222,150 l 6,0 0,6 -6,0 z M 6,156 l 6,0 0,6 -6,0 z M 36,156 l 6,0 0,6 -6,0 z M 48,156 l 6,0 0,6 -6,0 z M 60,156 l 6,0 0,6 -6,0 z M 96,156 l 6,0 0,6 -6,0 z M 126,156 l 6,0 0,6 -6,0 z M 132,156 l 6,0 0,6 -6,0 z M 138,156 l 6,0 0,6 -6,0 z M 150,156 l 6,0 0,6 -6,0 z M 156,156 l 6,0 0,6 -6,0 z M 174,156 l 6,0 0,6 -6,0 z M 180,156 l 6,0 0,6 -6,0 z M 186,156 l 6,0 0,6 -6,0 z M 222,156 l 6,0 0,6 -6,0 z M 6,162 l 6,0 0,6 -6,0 z M 36,162 l 6,0 0,6 -6,0 z M 42,162 l 6,0 0,6 -6,0 z M 60,162 l 6,0 0,6 -6,0 z M 66,162 l 6,0 0,6 -6,0 z M 72,162 l 6,0 0,6 -6,0 z M 78,162 l 6,0 0,6 -6,0 z M 108,162 l 6,0 0,6 -6,0 z M 126,162 l 6,0 0,6 -6,0 z M 132,162 l 6,0 0,6 -6,0 z M 138,162 l 6,0 0,6 -6,0 z M 150,162 l 6,0 0,6 -6,0 z M 156,162 l 6,0 0,6 -6,0 z M 168,162 l 6,0 0,6 -6,0 z M 186,162 l 6,0 0,6 -6,0 z M 192,162 l 6,0 0,6 -6,0 z M 210,162 l 6,0 0,6 -6,0 z M 222,162 l 6,0 0,6 -6,0 z M 6,168 l 6,0 0,6 -6,0 z M 24,168 l 6,0 0,6 -6,0 z M 48,168 l 6,0 0,6 -6,0 z M 54,168 l 6,0 0,6 -6,0 z M 60,168 l 6,0 0,6 -6,0 z M 72,168 l 6,0 0,6 -6,0 z M 90,168 l 6,0 0,6 -6,0 z M 96,168 l 6,0 0,6 -6,0 z M 108,168 l 6,0 0,6 -6,0 z M 114,168 l 6,0 0,6 -6,0 z M 120,168 l 6,0 0,6 -6,0 z M 132,168 l 6,0 0,6 -6,0 z M 138,168 l 6,0 0,6 -6,0 z M 144,168 l 6,0 0,6 -6,0 z M 168,168 l 6,0 0,6 -6,0 z M 174,168 l 6,0 0,6 -6,0 z M 180,168 l 6,0 0,6 -6,0 z M 204,168 l 6,0 0,6 -6,0 z M 222,168 l 6,0 0,6 -6,0 z M 6,174 l 6,0 0,6 -6,0 z M 30,174 l 6,0 0,6 -6,0 z M 36,174 l 6,0 0,6 -6,0 z M 42,174 l 6,0 0,6 -6,0 z M 48,174 l 6,0 0,6 -6,0 z M 60,174 l 6,0 0,6 -6,0 z M 66,174 l 6,0 0,6 -6,0 z M 72,174 l 6,0 0,6 -6,0 z M 96,174 l 6,0 0,6 -6,0 z M 102,174 l 6,0 0,6 -6,0 z M 108,174 l 6,0 0,6 -6,0 z M 120,174 l 6,0 0,6 -6,0 z M 126,174 l 6,0 0,6 -6,0 z M 132,174 l 6,0 0,6 -6,0 z M 138,174 l 6,0 0,6 -6,0 z M 168,174 l 6,0 0,6 -6,0 z M 174,174 l 6,0 0,6 -6,0 z M 180,174 l 6,0 0,6 -6,0 z M 186,174 l 6,0 0,6 -6,0 z M 192,174 l 6,0 0,6 -6,0 z M 198,174 l 6,0 0,6 -6,0 z M 204,174 l 6,0 0,6 -6,0 z M 210,174 l 6,0 0,6 -6,0 z M 222,174 l 6,0 0,6 -6,0 z M 54,180 l 6,0 0,6 -6,0 z M 78,180 l 6,0 0,6 -6,0 z M 84,180 l 6,0 0,6 -6,0 z M 90,180 l 6,0 0,6 -6,0 z M 96,180 l 6,0 0,6 -6,0 z M 114,180 l 6,0 0,6 -6,0 z M 120,180 l 6,0 0,6 -6,0 z M 138,180 l 6,0 0,6 -6,0 z M 144,180 l 6,0 0,6 -6,0 z M 150,180 l 6,0 0,6 -6,0 z M 156,180 l 6,0 0,6 -6,0 z M 168,180 l 6,0 0,6 -6,0 z M 174,180 l 6,0 0,6 -6,0 z M 198,180 l 6,0 0,6 -6,0 z M 204,180 l 6,0 0,6 -6,0 z M 210,180 l 6,0 0,6 -6,0 z M 222,180 l 6,0 0,6 -6,0 z M 6,186 l 6,0 0,6 -6,0 z M 12,186 l 6,0 0,6 -6,0 z M 18,186 l 6,0 0,6 -6,0 z M 24,186 l 6,0 0,6 -6,0 z M 30,186 l 6,0 0,6 -6,0 z M 36,186 l 6,0 0,6 -6,0 z M 42,186 l 6,0 0,6 -6,0 z M 54,186 l 6,0 0,6 -6,0 z M 66,186 l 6,0 0,6 -6,0 z M 84,186 l 6,0 0,6 -6,0 z M 90,186 l 6,0 0,6 -6,0 z M 96,186 l 6,0 0,6 -6,0 z M 102,186 l 6,0 0,6 -6,0 z M 114,186 l 6,0 0,6 -6,0 z M 126,186 l 6,0 0,6 -6,0 z M 138,186 l 6,0 0,6 -6,0 z M 144,186 l 6,0 0,6 -6,0 z M 150,186 l 6,0 0,6 -6,0 z M 156,186 l 6,0 0,6 -6,0 z M 168,186 l 6,0 0,6 -6,0 z M 174,186 l 6,0 0,6 -6,0 z M 186,186 l 6,0 0,6 -6,0 z M 198,186 l 6,0 0,6 -6,0 z M 204,186 l 6,0 0,6 -6,0 z M 6,192 l 6,0 0,6 -6,0 z M 42,192 l 6,0 0,6 -6,0 z M 60,192 l 6,0 0,6 -6,0 z M 66,192 l 6,0 0,6 -6,0 z M 78,192 l 6,0 0,6 -6,0 z M 84,192 l 6,0 0,6 -6,0 z M 96,192 l 6,0 0,6 -6,0 z M 102,192 l 6,0 0,6 -6,0 z M 132,192 l 6,0 0,6 -6,0 z M 144,192 l 6,0 0,6 -6,0 z M 156,192 l 6,0 0,6 -6,0 z M 162,192 l 6,0 0,6 -6,0 z M 168,192 l 6,0 0,6 -6,0 z M 174,192 l 6,0 0,6 -6,0 z M 198,192 l 6,0 0,6 -6,0 z M 204,192 l 6,0 0,6 -6,0 z M 210,192 l 6,0 0,6 -6,0 z M 216,192 l 6,0 0,6 -6,0 z M 6,198 l 6,0 0,6 -6,0 z M 18,198 l 6,0 0,6 -6,0 z M 24,198 l 6,0 0,6 -6,0 z M 30,198 l 6,0 0,6 -6,0 z M 42,198 l 6,0 0,6 -6,0 z M 54,198 l 6,0 0,6 -6,0 z M 60,198 l 6,0 0,6 -6,0 z M 66,198 l 6,0 0,6 -6,0 z M 78,198 l 6,0 0,6 -6,0 z M 90,198 l 6,0 0,6 -6,0 z M 114,198 l 6,0 0,6 -6,0 z M 126,198 l 6,0 0,6 -6,0 z M 132,198 l 6,0 0,6 -6,0 z M 138,198 l 6,0 0,6 -6,0 z M 150,198 l 6,0 0,6 -6,0 z M 156,198 l 6,0 0,6 -6,0 z M 162,198 l 6,0 0,6 -6,0 z M 168,198 l 6,0 0,6 -6,0 z M 174,198 l 6,0 0,6 -6,0 z M 180,198 l 6,0 0,6 -6,0 z M 186,198 l 6,0 0,6 -6,0 z M 192,198 l 6,0 0,6 -6,0 z M 198,198 l 6,0 0,6 -6,0 z M 204,198 l 6,0 0,6 -6,0 z M 210,198 l 6,0 0,6 -6,0 z M 222,198 l 6,0 0,6 -6,0 z M 6,204 l 6,0 0,6 -6,0 z M 18,204 l 6,0 0,6 -6,0 z M 24,204 l 6,0 0,6 -6,0 z M 30,204 l 6,0 0,6 -6,0 z M 42,204 l 6,0 0,6 -6,0 z M 54,204 l 6,0 0,6 -6,0 z M 66,204 l 6,0 0,6 -6,0 z M 102,204 l 6,0 0,6 -6,0 z M 120,204 l 6,0 0,6 -6,0 z M 132,204 l 6,0 0,6 -6,0 z M 144,204 l 6,0 0,6 -6,0 z M 156,204 l 6,0 0,6 -6,0 z M 168,204 l 6,0 0,6 -6,0 z M 180,204 l 6,0 0,6 -6,0 z M 186,204 l 6,0 0,6 -6,0 z M 192,204 l 6,0 0,6 -6,0 z M 210,204 l 6,0 0,6 -6,0 z M 222,204 l 6,0 0,6 -6,0 z M 6,210 l 6,0 0,6 -6,0 z M 18,210 l 6,0 0,6 -6,0 z M 24,210 l 6,0 0,6 -6,0 z M 30,210 l 6,0 0,6 -6,0 z M 42,210 l 6,0 0,6 -6,0 z M 54,210 l 6,0 0,6 -6,0 z M 66,210 l 6,0 0,6 -6,0 z M 72,210 l 6,0 0,6 -6,0 z M 78,210 l 6,0 0,6 -6,0 z M 114,210 l 6,0 0,6 -6,0 z M 120,210 l 6,0 0,6 -6,0 z M 126,210 l 6,0 0,6 -6,0 z M 132,210 l 6,0 0,6 -6,0 z M 150,210 l 6,0 0,6 -6,0 z M 162,210 l 6,0 0,6 -6,0 z M 168,210 l 6,0 0,6 -6,0 z M 192,210 l 6,0 0,6 -6,0 z M 210,210 l 6,0 0,6 -6,0 z M 222,210 l 6,0 0,6 -6,0 z M 6,216 l 6,0 0,6 -6,0 z M 42,216 l 6,0 0,6 -6,0 z M 54,216 l 6,0 0,6 -6,0 z M 60,216 l 6,0 0,6 -6,0 z M 72,216 l 6,0 0,6 -6,0 z M 90,216 l 6,0 0,6 -6,0 z M 108,216 l 6,0 0,6 -6,0 z M 114,216 l 6,0 0,6 -6,0 z M 132,216 l 6,0 0,6 -6,0 z M 144,216 l 6,0 0,6 -6,0 z M 150,216 l 6,0 0,6 -6,0 z M 156,216 l 6,0 0,6 -6,0 z M 168,216 l 6,0 0,6 -6,0 z M 192,216 l 6,0 0,6 -6,0 z M 198,216 l 6,0 0,6 -6,0 z M 210,216 l 6,0 0,6 -6,0 z M 216,216 l 6,0 0,6 -6,0 z M 222,216 l 6,0 0,6 -6,0 z M 6,222 l 6,0 0,6 -6,0 z M 12,222 l 6,0 0,6 -6,0 z M 18,222 l 6,0 0,6 -6,0 z M 24,222 l 6,0 0,6 -6,0 z M 30,222 l 6,0 0,6 -6,0 z M 36,222 l 6,0 0,6 -6,0 z M 42,222 l 6,0 0,6 -6,0 z M 54,222 l 6,0 0,6 -6,0 z M 60,222 l 6,0 0,6 -6,0 z M 72,222 l 6,0 0,6 -6,0 z M 96,222 l 6,0 0,6 -6,0 z M 108,222 l 6,0 0,6 -6,0 z M 132,222 l 6,0 0,6 -6,0 z M 144,222 l 6,0 0,6 -6,0 z M 150,222 l 6,0 0,6 -6,0 z M 156,222 l 6,0 0,6 -6,0 z M 162,222 l 6,0 0,6 -6,0 z M 168,222 l 6,0 0,6 -6,0 z M 186,222 l 6,0 0,6 -6,0 z M 198,222 l 6,0 0,6 -6,0 z M 222,222 l 6,0 0,6 -6,0 z " />
	</g>
</svg>
